# xmcd CD database file
#
# Track frame offsets:
#	150
#	7917
#	19140
#
# Disc length: 428 seconds
#
# Revision: 0
# Processed by: cddbd v1.5.1PL2 Copyright (c) Steve Scherf et al.
# Submitted via: CDex 1.60beta1
#
DISCID=1401aa03
DTITLE=坂本龍一 - ASIENCE
DYEAR=2004
DGENRE=Other
TTITLE0=坂本龍一 - Asience - original
TTITLE1=坂本龍一 - Asience - string quartet
TTITLE2=坂本龍一 - Asience - slow piano
EXTD=YEAR: 2004
EXTT0=
EXTT1=
EXTT2=
PLAYORDER=
